<?xml version="1.0" encoding="utf-8"?>
<!-- Generator: Adobe Illustrator 22.1.0, SVG Export Plug-In . SVG Version: 6.00 Build 0)  -->
<svg version="1.1" id="Capa_1" xmlns="http://www.w3.org/2000/svg" xmlns:xlink="http://www.w3.org/1999/xlink" x="0px" y="0px"
	 viewBox="0 0 163 110" style="enable-background:new 0 0 163 110;" xml:space="preserve">
<style type="text/css">
	.st0{fill:#F6C508;}
	.st1{fill:#001E58;}
</style>
<g>
	<title>comercial</title>
	<rect x="81" y="13" class="st0" width="72" height="55.7"/>
	<path class="st1" d="M91.4,21.4c-0.1-0.1-0.1-0.1-0.2-0.1c-7.4-4.7-16.9-4.7-24.3,0c-0.1,0-0.2,0.1-0.2,0.1
		c-6.5,4.2-10.5,11.4-10.5,19.2v18l0,0c0,0.9,0.7,1.6,1.6,1.6l0,0h42.5c0.9,0,1.6-0.7,1.6-1.6v-18C101.9,32.8,97.9,25.6,91.4,21.4z
		 M65.9,56.9h-6.5v-9.8h6.5V56.9z M65.9,43.8h-6.5v-3.3c0-2.2,0.4-4.5,1.1-6.6h5.4V43.8L65.9,43.8z M65.9,30.8H62
		c1.1-1.8,2.4-3.4,3.9-4.8V30.8z M77.4,56.9h-8.2v-9.8h8.2V56.9z M77.4,43.8h-8.2V34h8.2V43.8z M77.4,30.8h-8.2v-7.1
		c2.5-1.5,5.3-2.3,8.2-2.6V30.8z M88.8,56.9h-8.2v-9.8h8.2V56.9z M88.8,43.8h-8.2V34h8.2V43.8z M88.8,30.8h-8.2V21
		c2.9,0.2,5.7,1.1,8.2,2.6V30.8z M98.6,56.9h-6.5v-9.8h6.5V56.9z M98.6,40.6v3.3h-6.5V34h5.4C98.2,36.1,98.6,38.3,98.6,40.6z
		 M92.1,30.8V26c1.6,1.4,2.9,3,3.9,4.8H92.1z"/>
	<path class="st1" d="M124.7,52h-4.9v-5.2c2.5-0.9,3.9-3.7,3-6.2c-0.7-2-2.5-3.3-4.6-3.3H110v-6.9c1-0.4,1.8-1.1,2.3-2
		c0.9-1.4,1-3.2,0.2-4.7C103.2,5.1,80.6-2.3,62.1,7c-7.2,3.6-13.1,9.5-16.7,16.7c-0.8,1.5-0.7,3.3,0.2,4.7c0.5,0.9,1.3,1.6,2.3,2
		v6.9h-8.1c-2.7,0-4.9,2.2-4.9,4.9c0,2.1,1.3,3.9,3.3,4.6V52h-4.9c-1.8,0-3.3,1.5-3.3,3.3v44.1l0,0c0,0.9,0.7,1.6,1.6,1.6l0,0h94.7
		c0.9,0,1.6-0.7,1.7-1.6l0,0V55.3C128,53.5,126.5,52,124.7,52z M38.2,97.7h-4.9V55.3h4.9V97.7z M48.4,25.2
		c8.5-16.9,29.1-23.8,46-15.3c6.6,3.3,11.9,8.7,15.3,15.3c0.3,0.5,0.2,1.1-0.1,1.5c-0.3,0.5-0.8,0.8-1.4,0.8l0,0
		c-0.6,0-1.1-0.3-1.4-0.8c-0.4-0.7-0.8-1.4-1.2-2.1l-0.2-0.3c-0.4-0.6-0.8-1.2-1.2-1.8l-0.2-0.3c-0.4-0.6-0.8-1.1-1.3-1.6
		c-0.1-0.1-0.1-0.2-0.2-0.2c-0.5-0.6-1-1.1-1.5-1.6l-0.1-0.1c-2.3-2.3-5-4.3-8-5.8l0,0c-1.3-0.7-2.6-1.2-4-1.7L88.2,11l-1-0.3
		c-0.5-0.1-1-0.2-1.4-0.4l-0.6-0.1c-0.5-0.1-1.1-0.2-1.6-0.3l-0.5-0.1c-0.6-0.1-1.3-0.2-1.9-0.2l0,0c-0.7,0-1.4-0.1-2.2-0.1h-0.1
		c-0.7,0-1.3,0-1.9,0.1h-0.3c-0.6,0-1.2,0.1-1.8,0.2c-0.2,0-0.5,0.1-0.8,0.1l-1,0.2l-1,0.2l-0.6,0.1c-0.7,0.2-1.4,0.4-2.1,0.6
		L69,11.2c-0.4,0.1-0.8,0.3-1.2,0.4l-0.3,0.1c-0.8,0.3-1.5,0.6-2.3,1L65,12.9c-0.4,0.2-0.7,0.4-1.1,0.6l-0.5,0.3
		c-0.6,0.3-1.1,0.7-1.7,1l-0.6,0.4l-0.8,0.6l-0.7,0.5L59,16.8l-1,0.9c-0.2,0.2-0.4,0.4-0.6,0.6s-0.6,0.6-0.9,0.9L56,19.8
		c-0.3,0.3-0.6,0.6-0.8,1c-0.1,0.2-0.3,0.3-0.4,0.5c-0.4,0.5-0.7,0.9-1.1,1.4c-0.1,0.2-0.2,0.4-0.4,0.6c-0.2,0.4-0.5,0.7-0.7,1.1
		L52.2,25c-0.3,0.6-0.6,1.1-0.9,1.7l0,0c-0.2,0.4-0.6,0.6-1,0.8h-0.1c-0.1,0-0.2,0-0.3,0c-0.6,0-1.1-0.3-1.4-0.8
		C48.2,26.2,48.1,25.6,48.4,25.2z M48,65.1L48,65.1v32.7h-6.6V53.6l0,0v-6.5H48V65.1z M49.8,43.8h-10c-0.9,0-1.6-0.7-1.6-1.6l0,0
		c0-0.9,0.7-1.6,1.6-1.6h9.8c0.9,0,1.6,0.7,1.6,1.6l0,0C51.2,43.1,50.6,43.8,49.8,43.8L49.8,43.8z M67.6,76.5L67.6,76.5v21.2h-9.8
		V73.2h9.8V76.5z M87.2,97.7H70.8V78.1h16.3L87.2,97.7z M100.2,97.7h-9.8V73.2h9.8V97.7z M106.8,97.7h-3.3V73.2
		c0-1.8-1.5-3.2-3.3-3.2h-9.8c-1.8,0-3.3,1.5-3.3,3.3l0,0v1.6H70.8v-1.7c0-1.8-1.5-3.2-3.3-3.2h-9.8c-1.8,0-3.3,1.5-3.3,3.3v24.5
		h-3.3v-31h55.5L106.8,97.7L106.8,97.7z M106.8,63.4H51.2V46.8c0.1,0,0.1-0.1,0.2-0.1l0.3-0.2c0.2-0.1,0.4-0.2,0.5-0.3
		c0.2-0.1,0.4-0.3,0.6-0.5l0.2-0.1l0,0c0.1-0.1,0.1-0.1,0.2-0.2c0.8-0.9,1.3-2,1.3-3.2l0,0c0-0.3,0-0.6-0.1-0.9c0-0.1,0-0.2-0.1-0.3
		s-0.1-0.4-0.2-0.6S54,40.2,54,40.1c-0.1-0.2-0.2-0.4-0.3-0.6l-0.1-0.2c-0.2-0.2-0.3-0.5-0.5-0.7L53,38.5c-0.2-0.2-0.4-0.3-0.6-0.5
		l-0.2-0.1c-0.2-0.1-0.4-0.2-0.5-0.3l-0.2-0.1l-0.2-0.1v-7c0.3-0.1,0.6-0.2,0.8-0.3l0.2-0.1c0.2-0.1,0.5-0.3,0.7-0.5l0.1-0.1
		c0.2-0.1,0.3-0.3,0.5-0.5l0.2-0.2c0.2-0.2,0.3-0.5,0.5-0.7c1-2,2.2-3.9,3.7-5.6c9.9-11.7,27.4-13.1,39.1-3.2
		c2.9,2.4,5.2,5.4,6.9,8.8c0.1,0.3,0.3,0.5,0.5,0.7l0.2,0.2c0.2,0.2,0.3,0.4,0.5,0.5l0.1,0.1c0.2,0.2,0.5,0.3,0.7,0.5l0.2,0.1
		c0.3,0.1,0.5,0.2,0.8,0.3v7l-0.2,0.1l-0.1,0.1c-0.2,0.1-0.4,0.2-0.6,0.3l-0.2,0.1c-0.2,0.1-0.4,0.3-0.6,0.5l-0.3,0.3
		c-0.2,0.2-0.4,0.4-0.5,0.7c0,0.1-0.1,0.2-0.1,0.2c-0.1,0.2-0.2,0.3-0.3,0.5c0,0.1-0.1,0.2-0.1,0.3c-0.1,0.2-0.1,0.4-0.2,0.5
		c0,0.1-0.1,0.2-0.1,0.3c-0.1,0.3-0.1,0.6-0.1,0.9c0,0.3,0,0.6,0.1,0.9c0,0.1,0,0.2,0.1,0.3c0,0.2,0.1,0.4,0.2,0.6l0.1,0.3
		c0.1,0.2,0.2,0.4,0.3,0.6c0,0.1,0.1,0.1,0.1,0.2c0.2,0.2,0.3,0.5,0.6,0.7l0.1,0.1c0.2,0.2,0.4,0.3,0.6,0.5c0.1,0.1,0.1,0.1,0.2,0.2
		c0.2,0.1,0.4,0.2,0.6,0.3l0.2,0.1l0.2,0.1L106.8,63.4L106.8,63.4z M116.6,53.6v44.1H110V65.1l0,0v-18h6.5L116.6,53.6L116.6,53.6z
		 M118.2,43.8h-9.8c-0.9,0-1.6-0.7-1.6-1.6l0,0c0-0.1,0-0.2,0-0.3l0,0c0-0.1,0-0.2,0.1-0.3l0,0c0-0.1,0.1-0.2,0.2-0.3l0.1-0.1
		l0.1-0.1l0,0c0.3-0.3,0.7-0.5,1.1-0.5h9.8c0.9,0,1.6,0.7,1.6,1.6c0,0.4-0.2,0.9-0.5,1.2C119,43.7,118.6,43.8,118.2,43.8z
		 M124.7,97.7h-4.9V55.3h4.9V97.7z"/>
</g>
</svg>
