<?xml version="1.0" encoding="utf-8"?>
<!-- Generator: Adobe Illustrator 22.1.0, SVG Export Plug-In . SVG Version: 6.00 Build 0)  -->
<svg version="1.1" id="Capa_1" xmlns="http://www.w3.org/2000/svg" xmlns:xlink="http://www.w3.org/1999/xlink" x="0px" y="0px"
	 viewBox="0 0 163 110" style="enable-background:new 0 0 163 110;" xml:space="preserve">
<style type="text/css">
	.st0{fill:#F6C508;}
	.st1{fill:#001E58;}
</style>
<title>hotel</title>
<g id="Capa_2_1_">
	<rect x="67.4" y="7.6" class="st0" width="72" height="55.7"/>
	<path class="st1" d="M77.3,19.8l-4.7,2.5c-0.7,0.4-1.7,0.1-2.1-0.6c-0.2-0.3-0.2-0.7-0.2-1l0.9-5.3l-3.8-3.7
		c-0.6-0.6-0.6-1.6,0-2.2c0.2-0.2,0.5-0.4,0.9-0.5l5.3-0.8L76,3.4c0.4-0.8,1.3-1.1,2.1-0.7c0.3,0.2,0.6,0.4,0.7,0.7L81,8.2L86.3,9
		c0.8,0.1,1.4,0.9,1.3,1.7c0,0.3-0.2,0.7-0.5,0.9l-3.8,3.7l0.9,5.2c0.1,0.8-0.4,1.6-1.3,1.8c-0.3,0.1-0.7,0-1-0.2L77.3,19.8z
		 M76.6,16.7c0.5-0.2,1-0.2,1.4,0l2.7,1.4l-0.5-3c-0.1-0.5,0.1-1,0.4-1.3l2.2-2.1l-3-0.4c-0.5-0.1-0.9-0.4-1.2-0.8l-1.3-2.7L76,10.5
		c-0.2,0.5-0.7,0.8-1.2,0.9l-3,0.4l2.2,2.1c0.4,0.4,0.5,0.9,0.4,1.4l-0.5,3L76.6,16.7z M47.9,22.3c-0.7,0.4-1.7,0.2-2.1-0.6
		c-0.2-0.3-0.2-0.7-0.2-1.1l0.9-5.3l-3.8-3.7c-0.6-0.6-0.6-1.6,0-2.2c0.2-0.2,0.6-0.4,0.9-0.5l5.3-0.8l2.4-4.8
		c0.4-0.8,1.3-1.1,2.1-0.7c0.2,0.3,0.4,0.5,0.6,0.9l2.4,4.8l5.3,0.8c0.8,0.1,1.4,0.9,1.3,1.7c0,0.3-0.2,0.6-0.5,0.9l-3.8,3.7
		l0.9,5.3c0.1,0.8-0.4,1.6-1.2,1.8c-0.3,0.1-0.7,0-1-0.2l-4.7-2.5L47.9,22.3z M51.9,16.7c0.5-0.2,1-0.2,1.4,0l2.7,1.4l-0.5-3
		c-0.1-0.5,0.1-1,0.4-1.4l2.1-2.1l-3-0.4c-0.5-0.1-0.9-0.4-1.2-0.9l-1.3-2.7l-1.4,2.7c-0.2,0.5-0.7,0.8-1.2,0.9l-3,0.4l2.2,2.1
		c0.4,0.4,0.5,0.9,0.5,1.4l-0.5,3L51.9,16.7z M32.5,25.2l-3.8,2c-0.8,0.4-1.7,0.1-2.1-0.7c-0.1-0.3-0.2-0.6-0.2-0.9l0.7-4.2l-3.1-3
		c-0.6-0.6-0.6-1.6,0-2.2c0.2-0.2,0.5-0.4,0.9-0.4l4.3-0.6l1.9-3.9c0.4-0.8,1.3-1.1,2.1-0.7c0.3,0.2,0.6,0.4,0.7,0.7l1.9,3.9
		l4.3,0.6c0.8,0.1,1.4,0.9,1.3,1.8c0,0.3-0.2,0.6-0.4,0.9l-3.1,3l0.8,4.3c0.1,0.8-0.4,1.6-1.3,1.8c-0.3,0.1-0.7,0-1-0.2L32.5,25.2z
		 M31.8,22.1c0.4-0.2,1-0.2,1.4,0L35,23l-0.3-2c-0.1-0.5,0.1-1,0.4-1.4l1.4-1.4l-2-0.3c-0.5-0.1-0.9-0.4-1.2-0.8l-0.9-1.8l-0.8,1.8
		c-0.2,0.5-0.7,0.8-1.2,0.8l-2,0.3l1.4,1.4c0.4,0.4,0.5,0.9,0.4,1.4l-0.3,2L31.8,22.1z M93.5,27.2c-0.8,0.4-1.7,0.1-2.1-0.7
		c-0.1-0.3-0.2-0.6-0.2-0.9l0.7-4.2l-3.1-3c-0.6-0.6-0.6-1.6,0-2.2c0.2-0.2,0.5-0.4,0.9-0.4l4.3-0.6l1.9-3.9
		c0.4-0.8,1.3-1.1,2.1-0.7c0.3,0.2,0.6,0.4,0.7,0.7l1.9,3.8l4.3,0.6c0.8,0.1,1.4,0.9,1.3,1.8c-0.1,0.3-0.2,0.6-0.4,0.9l-3.1,3
		l0.8,4.3c0.1,0.8-0.4,1.6-1.3,1.8c-0.3,0.1-0.7,0-1-0.2l-3.8-2L93.5,27.2z M96.6,22.1c0.4-0.2,1-0.2,1.4,0l1.8,0.9l-0.3-2
		c-0.1-0.5,0.1-1,0.4-1.4l1.4-1.4l-2-0.3c-0.5-0.1-0.9-0.4-1.2-0.8l-0.9-1.8l-0.8,1.8c-0.2,0.5-0.7,0.8-1.2,0.8l-2,0.3l1.4,1.4
		C95,20,95.1,20.5,95,21l-0.3,2L96.6,22.1z M97.4,107.6H32.5c-0.9,0-1.5-0.7-1.5-1.5V50.5c0-0.9,0.7-1.5,1.5-1.5h26.2v-7.7
		c0-0.9,0.7-1.5,1.5-1.5l0,0h37.1c0.9,0,1.5,0.7,1.6,1.5v64.8C98.9,106.9,98.2,107.6,97.4,107.6z M86.5,104.5h9.3V42.8h-34v61.8h9.3
		v-17c0-0.8,0.7-1.5,1.5-1.5H85c0.9,0,1.5,0.7,1.5,1.5l0,0V104.5z M58.8,104.5V52H34v52.5H58.8z M74.2,104.5h9.3V89.1h-9.3V104.5z
		 M69.6,76.7c-0.9,0-1.6-0.7-1.6-1.6s0.7-1.6,1.6-1.6h4.6c0.9,0.1,1.5,0.8,1.4,1.7c-0.1,0.8-0.7,1.4-1.4,1.4L69.6,76.7z M83.5,76.7
		c-0.9-0.1-1.5-0.8-1.4-1.7c0.1-0.8,0.7-1.4,1.4-1.4h4.6c0.9,0.1,1.5,0.8,1.4,1.7c-0.1,0.8-0.7,1.4-1.4,1.4H83.5z M69.6,55.1
		c-0.9,0.1-1.6-0.6-1.7-1.4c-0.1-0.9,0.6-1.6,1.4-1.7c0.1,0,0.2,0,0.2,0h4.6c0.9,0.1,1.5,0.8,1.4,1.7c-0.1,0.8-0.7,1.4-1.4,1.4H69.6
		z M83.5,55.1c-0.9-0.1-1.5-0.8-1.4-1.7c0.1-0.8,0.7-1.4,1.4-1.4h4.6c0.9,0.1,1.5,0.8,1.4,1.7c-0.1,0.8-0.7,1.4-1.4,1.4H83.5z
		 M69.6,65.9c-0.9,0.1-1.6-0.6-1.7-1.4c-0.1-0.9,0.6-1.6,1.4-1.7c0.1,0,0.2,0,0.2,0h4.6c0.9,0.1,1.5,0.8,1.4,1.7
		c-0.1,0.8-0.7,1.4-1.4,1.4H69.6z M83.5,65.9c-0.9-0.1-1.5-0.8-1.4-1.7c0.1-0.8,0.7-1.4,1.4-1.4h4.6c0.9,0.1,1.5,0.8,1.4,1.7
		c-0.1,0.8-0.7,1.4-1.4,1.4H83.5z M41.8,93.7c-0.9-0.1-1.5-0.8-1.4-1.7c0.1-0.8,0.7-1.4,1.4-1.4H51c0.9,0.1,1.5,0.8,1.4,1.7
		c-0.1,0.8-0.7,1.4-1.4,1.4H41.8z M41.8,79.8c-0.9-0.1-1.5-0.8-1.4-1.7c0.1-0.8,0.7-1.4,1.4-1.4H51c0.9,0.1,1.5,0.8,1.4,1.7
		c-0.1,0.8-0.7,1.4-1.4,1.4H41.8z M41.8,65.9c-0.9-0.1-1.5-0.8-1.4-1.7c0.1-0.8,0.7-1.4,1.4-1.4H51c0.9,0.1,1.5,0.8,1.4,1.7
		c-0.1,0.8-0.7,1.4-1.4,1.4H41.8z"/>
</g>
</svg>
