<svg xmlns="http://www.w3.org/2000/svg" xmlns:xlink="http://www.w3.org/1999/xlink" viewBox="0 0 163 110"><defs><style>.cls-1{fill:none;}.cls-2{clip-path:url(#clip-path);}.cls-3{fill:#fff;}.cls-4{fill:#f6c508;}.cls-5{fill:#001e58;}</style><clipPath id="clip-path" transform="translate(0 -1)"><rect class="cls-1" width="163" height="110"/></clipPath></defs><title>Recurso 7</title><g id="Capa_2" data-name="Capa 2"><g id="Fondo_Rosado" data-name="Fondo Rosado"><g class="cls-2"><rect class="cls-3" width="163" height="110"/><rect class="cls-4" x="4.5" y="32.5" width="72" height="55.74"/><path class="cls-5" d="M120.44,57.18l-21,9V58.71a1.66,1.66,0,0,0-2.32-1.53L74.18,67H69.53V54.34a4,4,0,0,0-4-4h-5.4a4,4,0,0,0-4,4V67H49.45L46.24,23.65a1.66,1.66,0,0,0-1.66-1.54h-10a1.66,1.66,0,0,0-1.66,1.54L29.73,67H27.94a1.66,1.66,0,0,0-1.65,1.48L23,98.44a1.66,1.66,0,0,0,1.65,1.85h96.48a1.66,1.66,0,0,0,1.66-1.66V58.71A1.66,1.66,0,0,0,120.44,57.18ZM59.55,54.34a.63.63,0,0,1,.63-.63h5.4a.63.63,0,0,1,.63.63V67H59.55Zm-1.66,16h15V97H56l-3-26.61h4.8ZM36.14,25.44H43L46.11,67H33.06ZM29.43,70.35H49.74l1.32,11.84L52.7,97H46.24V85.32a1.66,1.66,0,0,0-1.66-1.66h-10a1.66,1.66,0,0,0-1.66,1.66V97H26.48ZM36.26,97V87h6.65V97ZM76.18,69.78l20-8.55V97h-5V87a1.66,1.66,0,0,0-1.66-1.66H82.84A1.66,1.66,0,0,0,81.17,87V97h-5V69.78ZM84.5,97V88.65h3.33V97Zm26.61,0h-3.33V88.65h3.33Zm8.32,0h-5V87a1.66,1.66,0,0,0-1.66-1.66h-6.65A1.66,1.66,0,0,0,104.46,87V97h-5V69.78l20-8.55V97Z" transform="translate(0 -1)"/><path class="cls-5" d="M41.86,18.67l.66-.24c.55-.19,1.15-.37,1.79-.55a22.6,22.6,0,0,1,3.8-.72c2.95-.27,4.52.35,4.82,1.93A16.69,16.69,0,0,0,53.28,21a21.1,21.1,0,0,0,1.52,4.35c2,4.16,5.21,6.76,9.74,6.76a31,31,0,0,0,5.23-.26A9.87,9.87,0,0,0,75,29.91a19.88,19.88,0,0,0,7.22,4.88,9.59,9.59,0,0,0,4,.64,15.21,15.21,0,0,0,9.3-3.7A24.12,24.12,0,0,0,98,29.46a11.63,11.63,0,0,0,8.11,2.65l1.4,0c12.44-.28,18.81-15.14,10.2-24.07-.2-.2-.35-.35-.44-.44a1.66,1.66,0,0,0-2.78,1.24c0,4.35-1,6.74-2.58,7.78a3.3,3.3,0,0,1-2.11.56l-.29,0c-3.12,0-6.31-2.86-9-7.06a20,20,0,0,0-5.67-6C92.48,2.56,90.66,2,89.39,2.15a14.69,14.69,0,0,0-10,3.75c-.36.32-.68.64-1,1a6.9,6.9,0,0,0-3.33-2.38,11.26,11.26,0,0,0-3.9-.67A23.59,23.59,0,0,0,61.6,5.62a13.18,13.18,0,0,0-2.66,1.52H56.22c-5.77,0-10.13,1.72-13.2,4.61a12.36,12.36,0,0,0-3.34,4.85A1.66,1.66,0,0,0,41.86,18.67Zm14.37-8.2h3.33A1.66,1.66,0,0,0,60.72,10a8.22,8.22,0,0,1,2.23-1.33,20.31,20.31,0,0,1,8.25-1.52A8.16,8.16,0,0,1,74,7.61a2.85,2.85,0,0,1,2.23,2.86,1.66,1.66,0,0,0,3.16.73,7,7,0,0,1,.5-.82,11.52,11.52,0,0,1,1.77-2,11.4,11.4,0,0,1,7.87-2.9l.3,0s.21,0,.59.14a9.44,9.44,0,0,1,2.55,1.28,16.7,16.7,0,0,1,4.71,5c3.23,5,7.1,8.53,11.68,8.59a6.6,6.6,0,0,0,4.36-1.1,9.14,9.14,0,0,0,3.64-6,11,11,0,0,1-10,15.43h-1.26l-.25,0a7.3,7.3,0,0,1-2.26-.2,9.34,9.34,0,0,1-3.83-1.93q-.41-.34-.81-.73a1.66,1.66,0,0,0-2.5.17c-.13.17-.4.49-.8.92a20.89,20.89,0,0,1-2.28,2.12,11.9,11.9,0,0,1-7.24,3l-.28,0a6.44,6.44,0,0,1-2.57-.46,16.54,16.54,0,0,1-6-4.06L75.7,25.93,72.37,22.6A1.66,1.66,0,0,0,70,25l2.56,2.56a7.6,7.6,0,0,1-3.29,1,27.34,27.34,0,0,1-4.44.23h-.24c-3.15,0-5.32-1.77-6.83-4.89a17.82,17.82,0,0,1-1.27-3.66,15,15,0,0,1-.3-1.62c-.73-3.87-4-5.15-8.41-4.75a23,23,0,0,0-2.58.4C47.75,11.87,51.3,10.47,56.22,10.47Z" transform="translate(0 -1)"/><path class="cls-5" d="M59.55,92a1.66,1.66,0,0,0,1.66-1.66V77a1.66,1.66,0,0,0-3.33,0V90.31A1.66,1.66,0,0,0,59.55,92Z" transform="translate(0 -1)"/><path class="cls-5" d="M67.87,92a1.66,1.66,0,0,0,1.66-1.66V77a1.66,1.66,0,0,0-3.33,0V90.31A1.66,1.66,0,0,0,67.87,92Z" transform="translate(0 -1)"/><path class="cls-5" d="M82.84,80.33h6.65a1.66,1.66,0,0,0,1.66-1.66V72a1.66,1.66,0,0,0-1.66-1.66H82.84A1.66,1.66,0,0,0,81.17,72v6.65A1.66,1.66,0,0,0,82.84,80.33Zm1.66-6.65h3.33V77H84.5Z" transform="translate(0 -1)"/><path class="cls-5" d="M106.12,80.33h6.65a1.66,1.66,0,0,0,1.66-1.66V72a1.66,1.66,0,0,0-1.66-1.66h-6.65A1.66,1.66,0,0,0,104.46,72v6.65A1.66,1.66,0,0,0,106.12,80.33Zm1.66-6.65h3.33V77h-3.33Z" transform="translate(0 -1)"/></g></g></g></svg>