<svg xmlns="http://www.w3.org/2000/svg" xmlns:xlink="http://www.w3.org/1999/xlink" viewBox="0 0 163 110"><defs><style>.cls-1{fill:none;}.cls-2{clip-path:url(#clip-path);}.cls-3{fill:#fff;}.cls-4{fill:#f6c508;}.cls-5{fill:#001e58;}</style><clipPath id="clip-path" transform="translate(0 -1)"><rect class="cls-1" width="163" height="110"/></clipPath></defs><title>Recurso 1</title><g id="Capa_2" data-name="Capa 2"><g id="Fondo_Rosado" data-name="Fondo Rosado"><g class="cls-2"><rect class="cls-3" width="163" height="110"/><rect class="cls-4" x="74" y="47" width="72" height="55.74"/><path class="cls-5" d="M37.81,42.09H39.9a2.56,2.56,0,0,0,0,.33V83.1H38.45a2.59,2.59,0,0,0,0,5.18h76.79a2.59,2.59,0,1,0,0-5.18h-1.42V42.42a2.56,2.56,0,0,0,0-.33h2.09A4.51,4.51,0,0,0,118.57,34L78.39,4.23a2.59,2.59,0,0,0-3.08,0L35.13,34a4.51,4.51,0,0,0,2.68,8.13Zm41.36,41H74.52V42.42a2.56,2.56,0,0,0,0-.33h4.7a2.56,2.56,0,0,0,0,.33V83.1Zm-19.65,0H54.87V42.42a2.56,2.56,0,0,0,0-.33h4.7a2.56,2.56,0,0,0,0,.33Zm-14.47,0V45H49.7V83.1Zm19.65,0V45h4.65V83.1Zm19.65,0V45H89V83.1Zm19.65,0V45h4.65V83.1ZM98.82,42.42V83.1H94.17V42.42a2.56,2.56,0,0,0,0-.33h4.7A2.56,2.56,0,0,0,98.82,42.42Zm-22-32.9,37,27.39h-74Z" transform="translate(0 -1)"/><path class="cls-5" d="M120.11,91.38H33.59a2.59,2.59,0,1,0,0,5.18h86.51a2.59,2.59,0,1,0,0-5.18Z" transform="translate(0 -1)"/></g></g></g></svg>