<svg xmlns="http://www.w3.org/2000/svg" xmlns:xlink="http://www.w3.org/1999/xlink" viewBox="0 0 163 110"><defs><style>.cls-1{fill:none;}.cls-2{clip-path:url(#clip-path);}.cls-3{fill:#fff;}.cls-4{fill:#f6c508;}.cls-5{fill:#001e58;}</style><clipPath id="clip-path" transform="translate(0 -1)"><rect class="cls-1" width="163" height="110"/></clipPath></defs><title>Recurso 2</title><g id="Capa_2" data-name="Capa 2"><g id="Fondo_Rosado" data-name="Fondo Rosado"><g class="cls-2"><rect class="cls-3" width="163" height="110"/><rect class="cls-4" x="22.5" y="26.5" width="72" height="55.74"/><path class="cls-5" d="M133.34,30,114,10.61a6.49,6.49,0,0,0-9.18,0l-4.55,4.55a6.44,6.44,0,0,0-1.51,2.4L77.43,13.75h0a17.77,17.77,0,0,0-20.85,13.9l-1,4.87a10,10,0,0,0,19.51,3.93l.6-3,9.55.83,24.94,24.94,4.52,4.52a2.35,2.35,0,0,1-3.32,3.32L99.29,55A2.16,2.16,0,1,0,96.23,58l12.11,12.11A2.35,2.35,0,1,1,105,73.45L92.91,61.35a2.16,2.16,0,0,0-3.05,3.05L102,76.51a2.35,2.35,0,0,1-3.32,3.32L86.54,67.72a2.16,2.16,0,0,0-3.05,3.05L95.59,82.88a2.35,2.35,0,1,1-3.32,3.32L49.44,43.36l-5.66-5.66a2.16,2.16,0,0,0-3.05,3.05l5.66,5.66,6.16,6.16L49.15,56a5.88,5.88,0,0,0,0,8.32l1.11,1.11a5.84,5.84,0,0,0,3.57,1.69,5.84,5.84,0,0,0,1.69,3.57l1.11,1.11a5.85,5.85,0,0,0,3.57,1.69A5.84,5.84,0,0,0,61.9,77L63,78.14a5.84,5.84,0,0,0,3.57,1.69,5.84,5.84,0,0,0,1.69,3.57l1.11,1.11a5.89,5.89,0,0,0,8.32,0l3.39-3.39,8.13,8.13a6.66,6.66,0,0,0,11.37-4.43A6.63,6.63,0,0,0,107,78.44a6.63,6.63,0,0,0,6.37-6.37,6.65,6.65,0,0,0,4.44-11.36l-3-3,10.95-10.95,7.61-7.61a6.5,6.5,0,0,0,0-9.18ZM52.2,61.23a1.57,1.57,0,0,1,0-2.21l3.18-3.18,3.32,3.32-3.18,3.18a1.57,1.57,0,0,1-2.21,0Zm6.37,6.37a1.57,1.57,0,0,1,0-2.21l3.18-3.18,3.32,3.32L61.9,68.71a1.57,1.57,0,0,1-2.21,0ZM64.95,74a1.56,1.56,0,0,1,0-2.21l3.18-3.18,3.32,3.32-3.18,3.18a1.57,1.57,0,0,1-2.21,0L64.95,74Zm9.69,7.48a1.57,1.57,0,0,1-2.21,0l-1.11-1.11a1.57,1.57,0,0,1,0-2.21L74.5,75l3.32,3.32Zm37.08-26.8-24-24a2.16,2.16,0,0,0-1.34-.62L74.16,29H74a2.16,2.16,0,0,0-2.12,1.73l-1,4.87a5.63,5.63,0,1,1-11-2.23l1-4.87A13.44,13.44,0,0,1,76.63,18h0l21,3.76,2.58,2.58,20.9,20.9ZM130.28,36.1l-6.09,6.09-20.9-20.9a2.17,2.17,0,0,1,0-3.07l4.55-4.55a2.17,2.17,0,0,1,3.07,0L130.28,33a2.17,2.17,0,0,1,0,3.07Z" transform="translate(0 -1)"/><circle class="cls-5" cx="125.05" cy="34.42" r="2.16"/></g></g></g></svg>