<?xml version="1.0" encoding="utf-8"?>
<!-- Generator: Adobe Illustrator 22.1.0, SVG Export Plug-In . SVG Version: 6.00 Build 0)  -->
<svg version="1.1" id="Capa_1" xmlns="http://www.w3.org/2000/svg" xmlns:xlink="http://www.w3.org/1999/xlink" x="0px" y="0px"
	 viewBox="0 0 163 110" style="enable-background:new 0 0 163 110;" xml:space="preserve">
<style type="text/css">
	.st0{fill:#F6C508;}
	.st1{fill:#001E58;}
</style>
<title>residencial</title>
<g id="Capa_2_1_">
	<rect x="66.5" y="46.1" class="st0" width="72" height="55.7"/>
	<path class="st1" d="M108.5,94.1h-41c-1.1,0-2-0.9-2-2v-61c0-1.1,0.9-2,2-2s2,0.9,2,2v59h37V31.9l-9.9-10.8L87,32.5
		c-0.7,0.9-1.9,1-2.8,0.4s-1-1.9-0.4-2.8l0,0l0.1-0.1l11-13c0.7-0.8,2-0.9,2.8-0.2l0,0l0.2,0.2l12,13c0.3,0.4,0.5,0.9,0.5,1.3v61
		C110.5,93.2,109.6,94.1,108.5,94.1z"/>
	<path class="st1" d="M84.5,94.1h-10c-1.1,0-2-0.9-2-2v-20c0-1.1,0.9-2,2-2h10c1.1,0,2,0.9,2,2v20C86.5,93.2,85.6,94.1,84.5,94.1z
		 M76.5,90.1h6v-16h-6V90.1z"/>
	<path class="st1" d="M101.5,84.1h-10c-1.1,0-2-0.9-2-2v-10c0-1.1,0.9-2,2-2h10c1.1,0,2,0.9,2,2v10
		C103.5,83.2,102.6,84.1,101.5,84.1z M93.5,80.1h6v-6h-6V80.1z"/>
	<path class="st1" d="M75.5,24.1c-1.1,0-2-0.9-2-2v-12c0-1.1,0.9-2,2-2s2,0.9,2,2v12C77.5,23.2,76.6,24.1,75.5,24.1z"/>
	<path class="st1" d="M83.5,24.1c-1.1,0-2-0.9-2-2v-12c0-1.1,0.9-2,2-2s2,0.9,2,2v12C85.5,23.2,84.6,24.1,83.5,24.1z"/>
	<path class="st1" d="M101.5,67.1h-10c-1.1,0-2-0.9-2-2v-10c0-1.1,0.9-2,2-2h10c1.1,0,2,0.9,2,2v10
		C103.5,66.2,102.6,67.1,101.5,67.1z M93.5,63.1h6v-6h-6V63.1z"/>
	<path class="st1" d="M101.5,50.1h-10c-1.1,0-2-0.9-2-2v-10c0-1.1,0.9-2,2-2h10c1.1,0,2,0.9,2,2v10
		C103.5,49.2,102.6,50.1,101.5,50.1z M93.5,46.1h6v-6h-6V46.1z"/>
	<path class="st1" d="M84.5,67.1h-10c-1.1,0-2-0.9-2-2v-10c0-1.1,0.9-2,2-2h10c1.1,0,2,0.9,2,2v10C86.5,66.2,85.6,67.1,84.5,67.1z
		 M76.5,63.1h6v-6h-6V63.1z"/>
	<path class="st1" d="M84.5,50.1h-10c-1.1,0-2-0.9-2-2v-10c0-1.1,0.9-2,2-2h10c1.1,0,2,0.9,2,2v10C86.5,49.2,85.6,50.1,84.5,50.1z
		 M76.5,46.1h6v-6h-6V46.1z"/>
	<path class="st1" d="M108.5,33.1h-41c-1.1,0-2-0.9-2-2v-15c0-1.1,0.9-2,2-2h7c1.1,0,2,0.9,2,2c0,1.1-0.9,2-2,2h-5v11h37v-11h-23
		c-1.1,0-2-0.9-2-2c0-1.1,0.9-2,2-2h25c1.1,0,2,0.9,2,2v15C110.5,32.2,109.6,33.1,108.5,33.1z"/>
	<path class="st1" d="M67.5,94.1h-41c-1.1,0-2-0.9-2-2v-61c0-1.1,0.9-2,2-2s2,0.9,2,2v59h37V31.9l-9.9-10.8L46,32.5
		c-0.7,0.9-1.9,1-2.8,0.4c-0.9-0.7-1-1.9-0.4-2.8l0.1-0.1l11-13c0.7-0.8,2-0.9,2.8-0.2l0,0l0.2,0.2l12,13c0.3,0.4,0.5,0.9,0.5,1.3
		v61C69.5,93.2,68.6,94.1,67.5,94.1z"/>
	<path class="st1" d="M43.5,94.1h-10c-1.1,0-2-0.9-2-2v-20c0-1.1,0.9-2,2-2h10c1.1,0,2,0.9,2,2v20C45.5,93.2,44.6,94.1,43.5,94.1z
		 M35.5,90.1h6v-16h-6V90.1z"/>
	<path class="st1" d="M60.5,84.1h-10c-1.1,0-2-0.9-2-2v-10c0-1.1,0.9-2,2-2h10c1.1,0,2,0.9,2,2v10C62.5,83.2,61.6,84.1,60.5,84.1z
		 M52.5,80.1h6v-6h-6V80.1z"/>
	<path class="st1" d="M34.5,24.1c-1.1,0-2-0.9-2-2v-12c0-1.1,0.9-2,2-2s2,0.9,2,2v12C36.5,23.2,35.6,24.1,34.5,24.1z"/>
	<path class="st1" d="M42.5,24.1c-1.1,0-2-0.9-2-2v-12c0-1.1,0.9-2,2-2s2,0.9,2,2v12C44.5,23.2,43.6,24.1,42.5,24.1z"/>
	<path class="st1" d="M60.5,67.1h-10c-1.1,0-2-0.9-2-2v-10c0-1.1,0.9-2,2-2h10c1.1,0,2,0.9,2,2v10C62.5,66.2,61.6,67.1,60.5,67.1z
		 M52.5,63.1h6v-6h-6V63.1z"/>
	<path class="st1" d="M60.5,50.1h-10c-1.1,0-2-0.9-2-2v-10c0-1.1,0.9-2,2-2h10c1.1,0,2,0.9,2,2v10C62.5,49.2,61.6,50.1,60.5,50.1z
		 M52.5,46.1h6v-6h-6V46.1z"/>
	<path class="st1" d="M43.5,67.1h-10c-1.1,0-2-0.9-2-2v-10c0-1.1,0.9-2,2-2h10c1.1,0,2,0.9,2,2v10C45.5,66.2,44.6,67.1,43.5,67.1z
		 M35.5,63.1h6v-6h-6V63.1z"/>
	<path class="st1" d="M43.5,50.1h-10c-1.1,0-2-0.9-2-2v-10c0-1.1,0.9-2,2-2h10c1.1,0,2,0.9,2,2v10C45.5,49.2,44.6,50.1,43.5,50.1z
		 M35.5,46.1h6v-6h-6V46.1z"/>
	<path class="st1" d="M67.5,33.1h-41c-1.1,0-2-0.9-2-2v-15c0-1.1,0.9-2,2-2h7c1.1,0,2,0.9,2,2c0,1.1-0.9,2-2,2h-5v11h37v-11h-23
		c-1.1,0-2-0.9-2-2c0-1.1,0.9-2,2-2h25c1.1,0,2,0.9,2,2v15C69.5,32.2,68.6,33.1,67.5,33.1z"/>
	<path class="st1" d="M85.5,12.1h-12c-1.1,0-2-0.9-2-2s0.9-2,2-2h12c1.1,0,2,0.9,2,2S86.6,12.1,85.5,12.1z"/>
	<path class="st1" d="M44.5,12.1h-12c-1.1,0-2-0.9-2-2s0.9-2,2-2h12c1.1,0,2,0.9,2,2S45.6,12.1,44.5,12.1z"/>
</g>
</svg>
